<svg width="32" height="32" viewBox="0 0 32 32" fill="none" xmlns="http://www.w3.org/2000/svg">
<rect width="32" height="32" rx="5" fill="black"/>
<path d="M13.512 10.672V21.568C13.512 22.896 12.992 23.864 11.952 24.472C10.928 25.064 9.568 25.36 7.872 25.36C4.224 25.36 2.4 24.096 2.4 21.568V10.672C2.4 9.344 2.912 8.384 3.936 7.792C4.976 7.184 6.344 6.88 8.04 6.88C11.688 6.88 13.512 8.144 13.512 10.672ZM4.32 10.432V21.808C4.32 23.056 5.528 23.68 7.944 23.68C10.376 23.68 11.592 23.056 11.592 21.808V10.432C11.592 9.184 10.376 8.56 7.944 8.56C5.528 8.56 4.32 9.184 4.32 10.432ZM29.4261 10.672V21.568C29.4261 22.896 28.9061 23.864 27.8661 24.472C26.8421 25.064 25.4821 25.36 23.7861 25.36C20.1381 25.36 18.3141 24.096 18.3141 21.568V10.672C18.3141 9.344 18.8261 8.384 19.8501 7.792C20.8901 7.184 22.2581 6.88 23.9541 6.88C27.6021 6.88 29.4261 8.144 29.4261 10.672ZM20.2341 10.432V21.808C20.2341 23.056 21.4421 23.68 23.8581 23.68C26.2901 23.68 27.5061 23.056 27.5061 21.808V10.432C27.5061 9.184 26.2901 8.56 23.8581 8.56C21.4421 8.56 20.2341 9.184 20.2341 10.432Z" fill="white"/>
</svg>
