<svg width="51" height="25" viewBox="0 0 51 25" fill="none" xmlns="http://www.w3.org/2000/svg">
<mask id="mask0" mask-type="alpha" maskUnits="userSpaceOnUse" x="0" y="0" width="51" height="25">
<path fill-rule="evenodd" clip-rule="evenodd" d="M0.00402832 24.6931V0.0531273H50.364V24.6931H0.00402832Z" fill="white"/>
</mask>
<g mask="url(#mask0)">
<path fill-rule="evenodd" clip-rule="evenodd" d="M47.4858 0.0531273H2.87725C1.29037 0.0531273 0 1.34451 0 2.93147V21.8153C0 23.4022 1.29037 24.6931 2.87725 24.6931H47.4858C49.0726 24.6931 50.364 23.4022 50.364 21.8153V2.93147C50.364 1.34451 49.0726 0.0531273 47.4858 0.0531273" fill="#E6B91E"/>
</g>
<path fill-rule="evenodd" clip-rule="evenodd" d="M7.25159 19.6422H10.9786V5.27139H7.25159V19.6422Z" fill="#010101"/>
<path fill-rule="evenodd" clip-rule="evenodd" d="M18.9332 5.27139L18.0696 11.9868L17.5398 8.33674C17.3798 7.1665 17.2337 6.14246 17.0875 5.27139H12.2529V19.6422H15.5197L15.534 10.1548L16.9062 19.6422H19.2329L20.5424 9.94601L20.5493 19.6422H23.8087V5.27139H18.9332" fill="#010101"/>
<path fill-rule="evenodd" clip-rule="evenodd" d="M29.6397 7.86328C29.7853 7.94668 29.8837 8.07954 29.9256 8.26715C29.9671 8.44837 29.9884 8.86611 29.9884 9.51391V15.0792C29.9884 16.0411 29.9256 16.6263 29.7997 16.8426C29.6748 17.0583 29.3474 17.1625 28.8106 17.1625V7.73145C29.2146 7.73145 29.4931 7.77288 29.6397 7.86328ZM29.6046 19.6422C30.4964 19.6422 31.165 19.5933 31.6114 19.496C32.0493 19.3988 32.4261 19.2314 32.7253 18.9805C33.025 18.7361 33.2413 18.3955 33.3593 17.9634C33.4847 17.5318 33.5544 16.6682 33.5544 15.3795V10.3361C33.5544 8.97767 33.4985 8.06518 33.422 7.5986C33.3386 7.13889 33.1297 6.71373 32.7949 6.33803C32.4675 5.96124 31.9802 5.68961 31.3462 5.52329C30.7121 5.35588 29.6673 5.27139 27.8631 5.27139H25.0836V19.6422H29.6046V19.6422Z" fill="#010101"/>
<path fill-rule="evenodd" clip-rule="evenodd" d="M39.6776 16.1596C39.6776 16.8495 39.6426 17.2948 39.5729 17.476C39.5033 17.6573 39.2036 17.747 38.9735 17.747C38.7513 17.747 38.6041 17.6642 38.5281 17.4835C38.4585 17.3092 38.4165 16.9052 38.4165 16.2712V12.4746C38.4165 11.8193 38.451 11.4154 38.5143 11.248C38.5839 11.0881 38.7301 11.0046 38.9458 11.0046C39.1754 11.0046 39.4815 11.1024 39.5591 11.2837C39.6356 11.4713 39.6776 11.8687 39.6776 12.4746V16.1596ZM34.8218 5.27139V19.6422H38.18L38.4165 18.7297C38.7157 19.099 39.0506 19.3701 39.4193 19.5588C39.7892 19.7394 40.3318 19.8303 40.7565 19.8303C41.3421 19.8303 41.8571 19.6773 42.2822 19.3637C42.7143 19.0576 42.9864 18.6882 43.098 18.2695C43.2165 17.8454 43.2723 17.2045 43.2723 16.3472V12.3146C43.2723 11.4441 43.258 10.8792 43.2165 10.6151C43.1809 10.3504 43.0624 10.0783 42.8748 9.79928C42.6798 9.52085 42.4082 9.30562 42.0458 9.15147C41.6764 8.99842 41.2518 8.92189 40.7565 8.92189C40.3318 8.92189 39.7818 9.00583 39.4124 9.18018C39.0506 9.34705 38.7157 9.60479 38.4165 9.94601V5.27139H34.8218V5.27139Z" fill="#010101"/>
</svg>
